<svg xmlns="http://www.w3.org/2000/svg" viewBox="0 0 85.04 85.04">
	<style>
		path { fill: #000; }
        @media (prefers-color-scheme: dark) {
            path { fill: #FFF; }
        }
	</style>
	<path d="m83.43 12.47-15.81-.11v-.05h-7.25l-.18.54-18.53 54.81c-.05.16-.28.16-.33 0L33.6 45.11c-.05-.15 0-.32.15-.4 1.49-.84 9.33-5.6 9.56-13.45.26-8.68-2.89-16.62-14.23-18.75l-4.83-.03s-.02-.01-.04-.01L1.7 12.32c-.19 0-.45-.02-.45.16v.07c0 .38.46.24.84.24h1.48c.51 0 1.02.09 1.5.29 1.15.47 3.02 1.57 3.13 3.57.17 2.92 0 51.14 0 51.14s.32 3.42-3.38 3.92c-1.65.23-2.52.25-2.97.21a.45.45 0 0 0-.49.44v.02c0 .19.15.34.34.34h22.02c.19 0 .34-.15.34-.33v-.23c0-.19-.15-.34-.34-.34-1.38.04-6.48-.19-6.41-6.03.08-6.69.08-47.99.08-48.79v-.02c.02-.25.06-3.78 3.77-3.78.46 0 .9 0 1.32-.01 2.36.17 5.4 1.39 8.33 4.41 1.82 1.88 5.08 11.23 2.22 17.42-3.06 6.62-7.88 8.84-9.12 9.32-.17.07-.25.25-.2.42l9.41 27.74c.05.14.18.23.32.23h16.37c.14 0 .27-.09.32-.23l10.06-30.01 6.77-20.2c.08-.25.35-.27.51-.15.05 13.3-.06 45.67-.06 45.67s.32 3.42-3.38 3.92c-1.65.23-2.52.25-2.97.21a.45.45 0 0 0-.49.44v.02c0 .19.15.34.34.34h22.02c.19 0 .34-.15.34-.33v-.23c0-.19-.15-.34-.34-.34-1.38.04-6.48-.19-6.41-6.03.08-6.69.08-47.99.08-48.79v-.03c.02-.25.38-3.83 4.09-3.83.98 0 1.86-.03 2.72 0 .2 0 .36-.15.36-.34s-.15-.34-.34-.34Z"/>
</svg>
